<svg width="132" height="32" viewBox="0 0 132 32" fill="none" xmlns="http://www.w3.org/2000/svg">
<path d="M0 16V-9.53674e-07H12H24V2V4H26H28V16V28H26H24V30V32H12H0V16ZM20 16V4H14H8V16V28H14H20V16ZM34.4156 16V-9.53674e-07H48.4156H62.4156V2V4H52.4156H42.4156V8V12H50.4156H58.4156V14V16H50.4156H42.4156V22V28H52.4156H62.4156V30V32H48.4156H34.4156V16ZM68.8313 16V-9.53674e-07H72.8313H76.8313V2V4H78.8313H80.8313V6V8H82.8313H84.8313V6V4H86.8313H88.8313V2V-9.53674e-07H92.8313H96.8313V16V32H92.8313H88.8313V22V12H86.8313H84.8313V14V16H82.8313H80.8313V14V12H78.8313H76.8313V22V32H72.8313H68.8313V16ZM107.247 2V-9.53674e-07H117.247H127.247V2V4H129.247H131.247V16V28H129.247H127.247V30V32H117.247H107.247V30V28H105.247H103.247V16V4H105.247H107.247V2ZM123.247 16V4H117.247H111.247V16V28H117.247H123.247V16Z" fill="#222222"/>
</svg>
